<svg width="22" height="22" viewBox="0 0 22 22" fill="none" xmlns="http://www.w3.org/2000/svg">
<path fill-rule="evenodd" clip-rule="evenodd" d="M1.83337 4.58325C1.83337 6.10204 3.06459 7.33325 4.58337 7.33325C6.10216 7.33325 7.33337 6.10204 7.33337 4.58325C7.33337 3.06447 6.10216 1.83325 4.58337 1.83325C3.06459 1.83325 1.83337 3.06447 1.83337 4.58325ZM5.50004 4.58325C5.50004 5.08951 5.08964 5.49992 4.58337 5.49992C4.07711 5.49992 3.66671 5.08951 3.66671 4.58325C3.66671 4.07699 4.07711 3.66659 4.58337 3.66659C5.08964 3.66659 5.50004 4.07699 5.50004 4.58325ZM11 7.33325C9.48126 7.33325 8.25004 6.10204 8.25004 4.58325C8.25004 3.06447 9.48126 1.83325 11 1.83325C12.5188 1.83325 13.75 3.06447 13.75 4.58325C13.75 6.10204 12.5188 7.33325 11 7.33325ZM11.9167 4.58325C11.9167 5.08951 11.5063 5.49992 11 5.49992C10.4938 5.49992 10.0834 5.08951 10.0834 4.58325C10.0834 4.07699 10.4938 3.66659 11 3.66659C11.5063 3.66659 11.9167 4.07699 11.9167 4.58325ZM17.4167 7.33325C15.8979 7.33325 14.6667 6.10204 14.6667 4.58325C14.6667 3.06447 15.8979 1.83325 17.4167 1.83325C18.9355 1.83325 20.1667 3.06447 20.1667 4.58325C20.1667 6.10204 18.9355 7.33325 17.4167 7.33325ZM18.3334 4.58325C18.3334 5.08951 17.923 5.49992 17.4167 5.49992C16.9104 5.49992 16.5 5.08951 16.5 4.58325C16.5 4.07699 16.9104 3.66659 17.4167 3.66659C17.923 3.66659 18.3334 4.07699 18.3334 4.58325ZM4.58337 13.7499C3.06459 13.7499 1.83337 12.5187 1.83337 10.9999C1.83337 9.48114 3.06459 8.24992 4.58337 8.24992C6.10216 8.24992 7.33337 9.48114 7.33337 10.9999C7.33337 12.5187 6.10216 13.7499 4.58337 13.7499ZM5.50004 10.9999C5.50004 11.5062 5.08964 11.9166 4.58337 11.9166C4.07711 11.9166 3.66671 11.5062 3.66671 10.9999C3.66671 10.4937 4.07711 10.0833 4.58337 10.0833C5.08964 10.0833 5.50004 10.4937 5.50004 10.9999ZM11 13.7499C9.48126 13.7499 8.25004 12.5187 8.25004 10.9999C8.25004 9.48114 9.48126 8.24992 11 8.24992C12.5188 8.24992 13.75 9.48114 13.75 10.9999C13.75 12.5187 12.5188 13.7499 11 13.7499ZM11.9167 10.9999C11.9167 11.5062 11.5063 11.9166 11 11.9166C10.4938 11.9166 10.0834 11.5062 10.0834 10.9999C10.0834 10.4937 10.4938 10.0833 11 10.0833C11.5063 10.0833 11.9167 10.4937 11.9167 10.9999ZM17.4167 13.7499C15.8979 13.7499 14.6667 12.5187 14.6667 10.9999C14.6667 9.48114 15.8979 8.24992 17.4167 8.24992C18.9355 8.24992 20.1667 9.48114 20.1667 10.9999C20.1667 12.5187 18.9355 13.7499 17.4167 13.7499ZM18.3334 10.9999C18.3334 11.5062 17.923 11.9166 17.4167 11.9166C16.9104 11.9166 16.5 11.5062 16.5 10.9999C16.5 10.4937 16.9104 10.0833 17.4167 10.0833C17.923 10.0833 18.3334 10.4937 18.3334 10.9999ZM11 20.1666C9.48126 20.1666 8.25004 18.9354 8.25004 17.4166C8.25004 15.8978 9.48126 14.6666 11 14.6666C12.5188 14.6666 13.75 15.8978 13.75 17.4166C13.75 18.9354 12.5188 20.1666 11 20.1666ZM11.9167 17.4166C11.9167 17.9228 11.5063 18.3333 11 18.3333C10.4938 18.3333 10.0834 17.9228 10.0834 17.4166C10.0834 16.9103 10.4938 16.4999 11 16.4999C11.5063 16.4999 11.9167 16.9103 11.9167 17.4166Z" fill="#DADADA"/>
</svg>
