<svg width="22" height="22" viewBox="0 0 22 22" fill="none" xmlns="http://www.w3.org/2000/svg">
<path fill-rule="evenodd" clip-rule="evenodd" d="M11 20.6805L11.6029 20.1714C16.673 15.8898 19.25 12.1514 19.25 8.86524C19.25 4.21155 15.4944 0.886475 11 0.886475C6.50563 0.886475 2.75 4.21155 2.75 8.86524C2.75 12.1514 5.32703 15.8898 10.3971 20.1714L11 20.6805ZM11 18.3186C6.69773 14.5688 4.58333 11.3912 4.58333 8.86523C4.58333 5.22745 7.48377 2.65953 11 2.65953C14.5162 2.65953 17.4167 5.22745 17.4167 8.86523C17.4167 11.3912 15.3023 14.5688 11 18.3186ZM11 4.4326C13.5313 4.4326 15.5833 6.41716 15.5833 8.86524C15.5833 11.3133 13.5313 13.2979 11 13.2979C8.46869 13.2979 6.41667 11.3133 6.41667 8.86524C6.41667 6.41716 8.46869 4.4326 11 4.4326ZM8.25 8.86523C8.25 7.39639 9.48122 6.20565 11 6.20565C12.5188 6.20565 13.75 7.39639 13.75 8.86523C13.75 10.3341 12.5188 11.5248 11 11.5248C9.48122 11.5248 8.25 10.3341 8.25 8.86523Z" fill="#DADADA"/>
</svg>
