<svg width="22" height="22" viewBox="0 0 22 22" fill="none" xmlns="http://www.w3.org/2000/svg">
<path fill-rule="evenodd" clip-rule="evenodd" d="M9.95193 7.39187C10.4269 6.77289 10.5972 6.12053 10.06 5.54469C8.85465 3.91348 8.04401 2.90474 7.53553 2.41896C6.56885 1.49542 4.97864 1.62035 4.14143 2.41817C3.69175 2.84669 3.53952 2.99384 3.0778 3.44741C0.505953 5.93606 2.0744 11.197 6.2439 15.2334C10.4124 19.2689 15.8516 20.7866 18.4289 18.2927C18.855 17.8955 19.2157 17.5464 19.5002 17.2556C20.3206 16.4169 20.4452 14.9468 19.4948 13.9917C19.0075 13.5021 18.0129 12.7559 16.2553 11.54C15.717 11.0745 15.0787 11.1754 14.4936 11.5467C14.2121 11.7253 14.0073 11.9059 13.6205 12.2804L12.9181 12.9601C12.8256 13.0496 11.5694 12.4412 10.3499 11.2607C9.12986 10.0795 8.50119 8.86456 8.59327 8.77551L9.29615 8.09536C9.41887 7.97656 9.47754 7.91904 9.55278 7.84256C9.70954 7.68323 9.83932 7.53863 9.95193 7.39187ZM14.2137 14.2138L14.9162 13.534C15.1291 13.3279 15.2671 13.2012 15.3793 13.1138C16.919 14.1832 17.8107 14.8556 18.1749 15.2216C18.3936 15.4413 18.3596 15.8423 18.1695 16.0366C17.9065 16.3056 17.5647 16.6363 17.1452 17.0276C15.4787 18.64 11.088 17.4149 7.53982 13.9799C3.99051 10.5439 2.72435 6.2969 4.3783 4.69643C4.83816 4.24473 4.98386 4.10389 5.42711 3.68149C5.59331 3.52311 6.04602 3.48755 6.24819 3.6807C6.63967 4.05471 7.36585 4.95397 8.4341 6.39312C8.3788 6.45952 8.30973 6.53456 8.22568 6.62C8.16398 6.68271 8.11258 6.7331 8.00022 6.84188L7.29804 7.52136C6.10348 8.67655 7.12081 10.6426 9.05401 12.5141C10.9859 14.3844 13.0196 15.3694 14.2137 14.2138Z" fill="#DADADA"/>
</svg>
