<svg width="24" height="24" viewBox="0 0 24 24" fill="none" xmlns="http://www.w3.org/2000/svg">
<path fill-rule="evenodd" clip-rule="evenodd" d="M12 22.5605L12.6577 22.0051C18.1887 17.3344 21 13.256 21 9.67114C21 4.59439 16.9029 0.967041 12 0.967041C7.09705 0.967041 3 4.59439 3 9.67114C3 13.256 5.81131 17.3344 11.3423 22.0051L12 22.5605ZM12 19.984C7.30661 15.8932 5 12.4267 5 9.67114C5 5.70265 8.16411 2.90129 12 2.90129C15.8359 2.90129 19 5.70265 19 9.67114C19 12.4267 16.6934 15.8932 12 19.984ZM12 4.83553C14.7614 4.83553 17 7.00051 17 9.67114C17 12.3418 14.7614 14.5068 12 14.5068C9.23858 14.5068 7 12.3418 7 9.67114C7 7.00051 9.23858 4.83553 12 4.83553ZM9 9.67114C9 8.06876 10.3431 6.76977 12 6.76977C13.6569 6.76977 15 8.06876 15 9.67114C15 11.2735 13.6569 12.5725 12 12.5725C10.3431 12.5725 9 11.2735 9 9.67114Z" fill="#F9320C"/>
</svg>
