<svg width="24" height="24" viewBox="0 0 24 24" fill="none" xmlns="http://www.w3.org/2000/svg">
<path fill-rule="evenodd" clip-rule="evenodd" d="M10.8565 8.06388C11.3746 7.38862 11.5604 6.67696 10.9744 6.04877C9.65949 4.26927 8.77515 3.16883 8.22044 2.63889C7.16589 1.63139 5.43112 1.76767 4.51779 2.63803C4.02723 3.1055 3.86116 3.26603 3.35747 3.76083C0.551816 6.47572 2.26285 12.2149 6.81139 16.6183C11.3589 21.0207 17.2926 22.6763 20.1041 19.9557C20.5689 19.5223 20.9624 19.1415 21.2728 18.8243C22.1678 17.9094 22.3037 16.3056 21.2669 15.2637C20.7354 14.7296 19.6503 13.9156 17.7329 12.5891C17.1457 12.0813 16.4494 12.1914 15.811 12.5964C15.504 12.7912 15.2805 12.9883 14.8585 13.3968L14.0923 14.1383C13.9914 14.2359 12.621 13.5722 11.2907 12.2844C9.95972 10.9959 9.2739 9.67045 9.37435 9.5733L10.1411 8.83133C10.275 8.70172 10.339 8.63898 10.4211 8.55554C10.5921 8.38172 10.7337 8.22398 10.8565 8.06388ZM15.5057 15.506L16.2721 14.7644C16.5044 14.5396 16.6549 14.4013 16.7773 14.306C18.457 15.4726 19.4297 16.2061 19.8271 16.6054C20.0656 16.8451 20.0286 17.2825 19.8212 17.4945C19.5342 17.7879 19.1613 18.1487 18.7037 18.5755C16.8857 20.3346 12.0959 18.9981 8.22513 15.2508C4.35315 11.5024 2.97188 6.86937 4.7762 5.1234C5.27786 4.63064 5.4368 4.477 5.92035 4.01619C6.10166 3.84342 6.59552 3.80462 6.81608 4.01533C7.24314 4.42334 8.03534 5.40435 9.20071 6.97434C9.14038 7.04678 9.06503 7.12864 8.97333 7.22184C8.90603 7.29025 8.84996 7.34522 8.72738 7.46389L7.96136 8.20514C6.65821 9.46535 7.76802 11.6102 9.87697 13.6518C11.9845 15.6921 14.203 16.7666 15.5057 15.506Z" fill="#F9320C"/>
</svg>
