<svg width="22" height="22" viewBox="0 0 22 22" fill="none" xmlns="http://www.w3.org/2000/svg">
<path fill-rule="evenodd" clip-rule="evenodd" d="M11 21.2343L11.6029 20.7251C16.673 16.4436 19.25 12.7052 19.25 9.41901C19.25 4.76532 15.4944 1.44025 11 1.44025C6.50563 1.44025 2.75 4.76532 2.75 9.41901C2.75 12.7052 5.32703 16.4436 10.3971 20.7251L11 21.2343ZM11 18.8724C6.69773 15.1225 4.58333 11.9449 4.58333 9.419C4.58333 5.78122 7.48377 3.2133 11 3.2133C14.5162 3.2133 17.4167 5.78122 17.4167 9.419C17.4167 11.9449 15.3023 15.1225 11 18.8724ZM11 4.98637C13.5313 4.98637 15.5833 6.97093 15.5833 9.41901C15.5833 11.8671 13.5313 13.8517 11 13.8517C8.46869 13.8517 6.41667 11.8671 6.41667 9.41901C6.41667 6.97093 8.46869 4.98637 11 4.98637ZM8.25 9.41901C8.25 7.95016 9.48122 6.75942 11 6.75942C12.5188 6.75942 13.75 7.95016 13.75 9.41901C13.75 10.8879 12.5188 12.0786 11 12.0786C9.48122 12.0786 8.25 10.8879 8.25 9.41901Z" fill="#DADADA"/>
</svg>
