<svg width="22" height="22" viewBox="0 0 22 22" fill="none" xmlns="http://www.w3.org/2000/svg">
<path fill-rule="evenodd" clip-rule="evenodd" d="M9.95205 7.39193C10.427 6.77295 10.5973 6.12059 10.0601 5.54475C8.85477 3.91354 8.04413 2.9048 7.53565 2.41902C6.56897 1.49548 4.97877 1.62041 4.14155 2.41823C3.69188 2.84675 3.53964 2.99391 3.07792 3.44747C0.506075 5.93612 2.07452 11.197 6.24402 15.2335C10.4126 19.269 15.8518 20.7867 18.429 18.2928C18.8551 17.8955 19.2158 17.5465 19.5003 17.2556C20.3208 16.417 20.4453 14.9468 19.4949 13.9918C19.0077 13.5021 18.013 12.756 16.2554 11.5401C15.7171 11.0746 15.0789 11.1754 14.4937 11.5467C14.2122 11.7253 14.0074 11.906 13.6206 12.2804L12.9182 12.9601C12.8257 13.0496 11.5695 12.4412 10.3501 11.2607C9.12999 10.0796 8.50132 8.86462 8.5934 8.77557L9.29627 8.09542C9.41899 7.97662 9.47766 7.9191 9.5529 7.84262C9.70966 7.68329 9.83945 7.53869 9.95205 7.39193ZM14.2138 14.2139L14.9164 13.5341C15.1292 13.328 15.2672 13.2013 15.3794 13.1139C16.9191 14.1833 17.8108 14.8556 18.175 15.2217C18.3937 15.4414 18.3598 15.8424 18.1697 16.0367C17.9066 16.3056 17.5648 16.6364 17.1453 17.0276C15.4788 18.6401 11.0882 17.4149 7.53995 13.98C3.99063 10.5439 2.72447 6.29696 4.37842 4.69649C4.83828 4.24479 4.98398 4.10395 5.42724 3.68155C5.59343 3.52317 6.04614 3.48761 6.24831 3.68076C6.63979 4.05477 7.36597 4.95403 8.43423 6.39318C8.37892 6.45958 8.30985 6.53462 8.2258 6.62006C8.1641 6.68277 8.11271 6.73316 8.00034 6.84194L7.29816 7.52142C6.1036 8.67661 7.12093 10.6427 9.05414 12.5142C10.986 14.3844 13.0197 15.3694 14.2138 14.2139Z" fill="#DADADA"/>
</svg>
